<svg xmlns="http://www.w3.org/2000/svg" viewBox="0 0 254.85 24.78"><g id="Layer_2" data-name="Layer 2"><g id="Layer_1-2" data-name="Layer 1"><path d="M0,23.81H4V1.06H0V.6H11.6v.46h-4V23.81H14A6.64,6.64,0,0,0,19,22a10.82,10.82,0,0,0,2.63-5H22v7.28H0Z"/><path d="M23.56,23.81h3.17L36.45,0h.87l9.8,23.81h3.2v.47H39.23v-.47h4l-3.79-9.24H31.09l-3.78,9.24h4v.47H23.56ZM35.27,4.42l-4,9.68h7.93Z"/><path d="M53,17.13h.39a12.9,12.9,0,0,0,1,3,8.42,8.42,0,0,0,1.39,2,5.94,5.94,0,0,0,1.58,1.24,8,8,0,0,0,1.68.63,8.65,8.65,0,0,0,1.62.23l1.46,0a7.8,7.8,0,0,0,3.13-.53,5.29,5.29,0,0,0,2-1.35,4.82,4.82,0,0,0,1-1.76,6.06,6.06,0,0,0,.28-1.75,4,4,0,0,0-.46-2,4.94,4.94,0,0,0-1.19-1.41,6.64,6.64,0,0,0-1.57-.95,11.51,11.51,0,0,0-1.6-.57l-4.15-1.16a11.07,11.07,0,0,1-4.41-2.2A4.7,4.7,0,0,1,53.64,7a6.73,6.73,0,0,1,.57-2.77A6.59,6.59,0,0,1,55.83,2,7.77,7.77,0,0,1,58.34.53,9.32,9.32,0,0,1,61.53,0a9.46,9.46,0,0,1,2.1.2,9.09,9.09,0,0,1,1.46.45l1.1.45a2.61,2.61,0,0,0,1,.2,1.15,1.15,0,0,0,.63-.12A2.2,2.2,0,0,0,68.26.6h.51v6h-.44a9.41,9.41,0,0,0-.73-2.31,7,7,0,0,0-1.36-2,6.44,6.44,0,0,0-2-1.36A6.8,6.8,0,0,0,61.53.47a9.68,9.68,0,0,0-1.91.21,6.58,6.58,0,0,0-1.95.75,4.64,4.64,0,0,0-1.49,1.4A3.75,3.75,0,0,0,55.58,5a3.34,3.34,0,0,0,.47,1.81A4.18,4.18,0,0,0,57.26,8.1,7.57,7.57,0,0,0,58.91,9c.62.24,1.23.44,1.86.62l4.36,1.26c.45.14,1,.31,1.73.54a8.1,8.1,0,0,1,2,1,5.85,5.85,0,0,1,1.69,1.77,5.07,5.07,0,0,1,.71,2.79,7.28,7.28,0,0,1-.63,3,7.48,7.48,0,0,1-1.82,2.49A9.06,9.06,0,0,1,66,24.13a10.7,10.7,0,0,1-3.82.65l-1.33,0c-.39,0-.75,0-1.09-.08l-1-.15c-.34-.06-.71-.14-1.12-.25s-1-.29-1.55-.47a5,5,0,0,0-1.44-.26,1,1,0,0,0-.74.2,1.62,1.62,0,0,0-.34.53H53Z"/><path d="M75.39,23.81h4V1.06h-4V.6H87v.46H83V11.94H95V1.06H91V.6h11.6v.46h-4V23.81h4v.47H91v-.47h4V12.41H83v11.4h4v.47H75.39Z"/><path d="M104.75,23.81h4V1.06h-4V.6h6.31l1.09,0,1.14,0h1.12c.36,0,.7,0,1,0a13.47,13.47,0,0,1,4.32.58,8.14,8.14,0,0,1,2.67,1.43,4.56,4.56,0,0,1,1.33,1.83,5.21,5.21,0,0,1,.36,1.78,4.06,4.06,0,0,1-.52,2,5.59,5.59,0,0,1-1.41,1.63,7.51,7.51,0,0,1-2,1.13,9.3,9.3,0,0,1-2.41.56v.07a12.2,12.2,0,0,1,2.64.52,8.78,8.78,0,0,1,2.45,1.16,6.19,6.19,0,0,1,1.79,1.85,4.71,4.71,0,0,1,.68,2.52,6.13,6.13,0,0,1-.61,2.75,5.77,5.77,0,0,1-1.84,2.14,9.58,9.58,0,0,1-3.1,1.42,16.68,16.68,0,0,1-4.36.51h-1l-1,0c-.36,0-.74,0-1.12-.05l-1.22,0h-6.31Zm7.6-12.47h3.32a6.94,6.94,0,0,0,1.83-.23,3.3,3.3,0,0,0,1.43-.82,3.73,3.73,0,0,0,.91-1.58,8.1,8.1,0,0,0,.33-2.52,6.57,6.57,0,0,0-.49-2.78,3.69,3.69,0,0,0-1.26-1.58,4.19,4.19,0,0,0-1.73-.7A11,11,0,0,0,114.8,1l-1.31,0a10.88,10.88,0,0,0-1.14.08Zm0,12.47,1,.09c.34,0,.84.05,1.49.05a12.13,12.13,0,0,0,2.9-.3,4.2,4.2,0,0,0,2-1,4.39,4.39,0,0,0,1.14-2,11.2,11.2,0,0,0,.36-3.09A6.49,6.49,0,0,0,120,13.34a4.38,4.38,0,0,0-3.64-1.53h-4Z"/><path d="M128.78,23.81h4V1.06h-4V.6h6.3l1.1,0,1.14,0h1.11c.36,0,.71,0,1,0a13.47,13.47,0,0,1,4.32.58,8,8,0,0,1,2.66,1.43,4.59,4.59,0,0,1,1.34,1.83,5.21,5.21,0,0,1,.36,1.78,4.17,4.17,0,0,1-.52,2,5.59,5.59,0,0,1-1.41,1.63,7.82,7.82,0,0,1-2,1.13,9.37,9.37,0,0,1-2.42.56v.07a12.17,12.17,0,0,1,2.65.52,8.78,8.78,0,0,1,2.45,1.16,6,6,0,0,1,1.78,1.85,4.63,4.63,0,0,1,.69,2.52,6.14,6.14,0,0,1-.62,2.75,5.74,5.74,0,0,1-1.83,2.14,9.58,9.58,0,0,1-3.1,1.42,16.68,16.68,0,0,1-4.36.51h-1l-1,0c-.36,0-.73,0-1.11-.05l-1.23,0h-6.3Zm7.6-12.47h3.31a7,7,0,0,0,1.84-.23,3.26,3.26,0,0,0,1.42-.82,3.64,3.64,0,0,0,.92-1.58,8.1,8.1,0,0,0,.33-2.52,6.73,6.73,0,0,0-.49-2.78,3.85,3.85,0,0,0-1.26-1.58,4.25,4.25,0,0,0-1.73-.7A11.16,11.16,0,0,0,138.83,1l-1.32,0a10.87,10.87,0,0,0-1.13.08Zm0,12.47,1,.09c.35,0,.85.05,1.5.05a12.19,12.19,0,0,0,2.9-.3,4.29,4.29,0,0,0,2-1,4.38,4.38,0,0,0,1.13-2,11.2,11.2,0,0,0,.36-3.09A6.55,6.55,0,0,0,144,13.34a4.39,4.39,0,0,0-3.64-1.53h-4Z"/><path d="M159,23.81h4V14.27l-8.1-13.21h-3.28V.6h11v.46h-3.6l7.21,11.71,6.8-11.71h-3.63V.6h7.71v.46h-3.5l-7,12.14V23.81h4v.47H159Z"/><path d="M203.14,15.8h-2.68v7.55h-.4a2.78,2.78,0,0,0-.6-.5,1.51,1.51,0,0,0-.73-.13,2.66,2.66,0,0,0-1.22.31l-1.44.72a12,12,0,0,1-1.92.71,9.76,9.76,0,0,1-2.67.32,10.71,10.71,0,0,1-4.21-.78,11.49,11.49,0,0,1-3.54-2.48A14.34,14.34,0,0,1,181,17.59a11.35,11.35,0,0,1-1.1-5.08,12.33,12.33,0,0,1,.43-3.41,13.3,13.3,0,0,1,1.05-2.65,11.47,11.47,0,0,1,1.27-1.89c.44-.51.8-.91,1.09-1.2A12.47,12.47,0,0,1,187.14.93,10.06,10.06,0,0,1,191.55,0a9.14,9.14,0,0,1,2.08.2,8.84,8.84,0,0,1,1.42.45l1.09.45a2.85,2.85,0,0,0,1.08.2,1.77,1.77,0,0,0,1-.19,2.35,2.35,0,0,0,.55-.51h.5V7.25h-.37a12.65,12.65,0,0,0-.52-2A7.36,7.36,0,0,0,197.14,3,6.68,6.68,0,0,0,195,1.2a7.19,7.19,0,0,0-3.46-.73,6.93,6.93,0,0,0-4,1,7.23,7.23,0,0,0-2.37,2.76A12.28,12.28,0,0,0,184,8.15a33.26,33.26,0,0,0-.28,4.36c0,1,0,2,.13,3a20.17,20.17,0,0,0,.45,2.83,11.4,11.4,0,0,0,.89,2.46,6.55,6.55,0,0,0,1.47,1.93A5.79,5.79,0,0,0,188.71,24a8.85,8.85,0,0,0,2.77.35,6.25,6.25,0,0,0,2.07-.35,5.53,5.53,0,0,0,1.85-1,5.26,5.26,0,0,0,1.34-1.78,5.78,5.78,0,0,0,.52-2.55V15.8H193v-.47h10.19Z"/><path d="M206.84,23.81h4V1.06h-4V.6h6.84l.87,0,.86,0h.87c.28,0,.57,0,.86,0a29.51,29.51,0,0,1,3.75.21,6.5,6.5,0,0,1,3,1.25,5.3,5.3,0,0,1,1.79,2,5.23,5.23,0,0,1,.52,2.13A5.58,5.58,0,0,1,226,7.4a4.17,4.17,0,0,1-.87,1.6,6.24,6.24,0,0,1-1.92,1.49,9.24,9.24,0,0,1-3.35.92v.06c.38,0,.9.13,1.56.25a10.14,10.14,0,0,1,2,.62,7.3,7.3,0,0,1,1.89,1.15,3.81,3.81,0,0,1,1.23,1.84,7.87,7.87,0,0,1,.3,1.52q.09.84.15,1.74c0,.6.07,1.18.11,1.73a7.9,7.9,0,0,0,.19,1.4,5,5,0,0,0,.69,1.56,1.67,1.67,0,0,0,1.51.7,2.84,2.84,0,0,0,1-.17,2.29,2.29,0,0,0,.9-.53l.33.37c-.12.09-.26.18-.42.28a3,3,0,0,1-.59.28,4.89,4.89,0,0,1-.88.22,9.2,9.2,0,0,1-1.28.08,7.47,7.47,0,0,1-2.4-.33,3.65,3.65,0,0,1-1.53-1,4.08,4.08,0,0,1-.84-1.6,11.62,11.62,0,0,1-.38-2.21l-.25-3a6.05,6.05,0,0,0-.72-2.59,3.76,3.76,0,0,0-1.36-1.36,4.12,4.12,0,0,0-1.6-.52c-.55-.05-1-.08-1.44-.08h-3.6v12h4v.47h-11.6Zm7.6-12.47h3.31a7,7,0,0,0,1.84-.23,3.26,3.26,0,0,0,1.42-.82,3.74,3.74,0,0,0,.92-1.58,8.13,8.13,0,0,0,.32-2.52,6.74,6.74,0,0,0-.48-2.78,3.85,3.85,0,0,0-1.26-1.58,4.25,4.25,0,0,0-1.73-.7A11.16,11.16,0,0,0,216.89,1l-1.32,0a10.87,10.87,0,0,0-1.13.08Z"/><path d="M232.84,23.81h4V1.06h-4V.6h11.6v.46h-4V23.81h6.41a6.66,6.66,0,0,0,5-1.83,10.82,10.82,0,0,0,2.63-5h.39v7.28h-22Z"/></g></g></svg>